<svg xmlns="http://www.w3.org/2000/svg" xmlns:xlink="http://www.w3.org/1999/xlink" x="0px" y="0px" width="120px" height="20px" viewBox="0 120 20">

<g  transform="translate(80, 0)"><path fill="orange" d="M9.958,5.956c-2.577,0-4.667,2.089-4.667,4.667c0,2.577,2.089,4.667,4.667,4.667s4.667-2.09,4.667-4.667
								C14.625,8.045,12.535,5.956,9.958,5.956z M9.958,14.123c-1.933,0-3.5-1.568-3.5-3.5c0-1.933,1.567-3.5,3.5-3.5s3.5,1.567,3.5,3.5
								C13.458,12.555,11.891,14.123,9.958,14.123z M18.124,3.623h-2.916l-0.583-1.167c0,0-0.522-1.167-1.167-1.167h-7
								c-0.645,0-1.167,1.167-1.167,1.167L4.708,3.623H1.792c-0.645,0-1.167,0.522-1.167,1.167v12.832c0,0.645,0.522,1.168,1.167,1.168
								h16.333c0.645,0,1.167-0.523,1.167-1.168V4.789C19.291,4.145,18.769,3.623,18.124,3.623z M18.124,17.039
								c0,0.322-0.261,0.582-0.583,0.582H2.375c-0.323,0-0.583-0.26-0.583-0.582V5.373c0-0.323,0.261-0.583,0.583-0.583h2.954
								C5.316,4.74,5.292,4.695,5.292,4.643l0.933-1.458c0,0,0.418-0.729,0.934-0.729h5.6c0.516,0,0.934,0.729,0.934,0.729l0.934,1.458
								c0,0.052-0.024,0.097-0.038,0.146h2.954c0.322,0,0.583,0.261,0.583,0.583V17.039z"/>
<!-- <circle data-color="color-2" fill="#ffffff" cx="3" cy="14" r="2"/> -->
<!-- <circle data-color="color-2" fill="#ffffff" cx="13" cy="14" r="2"/>--></g>

<g  transform="translate(100, 0)"><path fill="orange" d="M10,1.375c-3.17,0-5.75,2.548-5.75,5.682c0,6.685,5.259,11.276,5.483,11.469c0.152,0.132,0.382,0.132,0.534,0c0.224-0.193,5.481-4.784,5.483-11.469C15.75,3.923,13.171,1.375,10,1.375 M10,17.653c-1.064-1.024-4.929-5.127-4.929-10.596c0-2.68,2.212-4.861,4.929-4.861s4.929,2.181,4.929,4.861C14.927,12.518,11.063,16.627,10,17.653 M10,3.839c-1.815,0-3.286,1.47-3.286,3.286s1.47,3.286,3.286,3.286s3.286-1.47,3.286-3.286S11.815,3.839,10,3.839 M10,9.589c-1.359,0-2.464-1.105-2.464-2.464S8.641,4.661,10,4.661s2.464,1.105,2.464,2.464S11.359,9.589,10,9.589	"/>

<!-- <circle data-color="color-2" fill="#ffffff" cx="3" cy="14" r="2"/> -->
<!-- <circle data-color="color-2" fill="#ffffff" cx="13" cy="14" r="2"/>--></g>

<g  transform="translate(60, 0)">
<path fill="orange" d="M15.94,10.179l-2.437-0.325l1.62-7.379c0.047-0.235-0.132-0.458-0.372-0.458H5.25c-0.241,0-0.42,0.223-0.373,0.458l1.634,7.376L4.06,10.179c-0.312,0.041-0.446,0.425-0.214,0.649l2.864,2.759l-0.724,3.947c-0.058,0.315,0.277,0.554,0.559,0.401l3.457-1.916l3.456,1.916c-0.419-0.238,0.56,0.439,0.56-0.401l-0.725-3.947l2.863-2.759C16.388,10.604,16.254,10.22,15.94,10.179M10.381,2.778h3.902l-1.536,6.977L12.036,9.66l-1.655-3.546V2.778z M5.717,2.778h3.903v3.335L7.965,9.66L7.268,9.753L5.717,2.778zM12.618,13.182c-0.092,0.088-0.134,0.217-0.11,0.343l0.615,3.356l-2.938-1.629c-0.057-0.03-0.122-0.048-0.184-0.048c-0.063,0-0.128,0.018-0.185,0.048l-2.938,1.629l0.616-3.356c0.022-0.126-0.019-0.255-0.11-0.343l-2.441-2.354l3.329-0.441c0.128-0.017,0.24-0.099,0.295-0.215l1.435-3.073l1.435,3.073c0.055,0.116,0.167,0.198,0.294,0.215l3.329,0.441L12.618,13.182z"/>
</g>
 <g  transform="translate(40, 0)">
<path fill="orange" d="M3,16h10c0.6,0,1-0.4,1-1V7.5l0.3,0.3C14.5,7.9,14.8,8,15,8c0.3,0,0.6-0.1,0.8-0.3c0.4-0.4,0.3-1-0.1-1.4
	l-7-6c-0.4-0.3-0.9-0.3-1.3,0L4,3.1V2c0-0.6-0.4-1-1-1S2,1.4,2,2v2.8L0.3,6.2c-0.4,0.4-0.5,1-0.1,1.4c0.4,0.4,1,0.5,1.4,0.1L2,7.5
	V15C2,15.6,2.4,16,3,16z M4,5.7l4-3.4l4,3.5c0,0.1,0,0.1,0,0.2v8h-2v-3c0-0.6-0.4-1-1-1H7c-0.6,0-1,0.4-1,1v3H4V5.7z"/>
<rect data-color="color-2" x="6" y="6" fill="orange" width="4" height="2"/>
</g>


<g  transform="translate(20, 0)">
<circle data-color="color-2" fill="orange" cx="6" cy="8" r="2"/>
<path fill="orange" d="M14.999,8.543c0,0.229-0.188,0.417-0.416,0.417H5.417C5.187,8.959,5,8.772,5,8.543s0.188-0.417,0.417-0.417h9.167C14.812,8.126,14.999,8.314,14.999,8.543 M12.037,10.213H5.417C5.187,10.213,5,10.4,5,10.63c0,0.229,0.188,0.416,0.417,0.416h6.621c0.229,0,0.416-0.188,0.416-0.416C12.453,10.4,12.266,10.213,12.037,10.213 M14.583,6.046H5.417C5.187,6.046,5,6.233,5,6.463c0,0.229,0.188,0.417,0.417,0.417h9.167c0.229,0,0.416-0.188,0.416-0.417C14.999,6.233,14.812,6.046,14.583,6.046 M17.916,3.542v10c0,0.229-0.188,0.417-0.417,0.417H9.373l-2.829,2.796c-0.117,0.116-0.71,0.297-0.71-0.296v-2.5H2.5c-0.229,0-0.417-0.188-0.417-0.417v-10c0-0.229,0.188-0.417,0.417-0.417h15C17.729,3.126,17.916,3.313,17.916,3.542 M17.083,3.959H2.917v9.167H6.25c0.229,0,0.417,0.187,0.417,0.416v1.919l2.242-2.215c0.079-0.077,0.184-0.12,0.294-0.12h7.881V3.959z"/>
</g>

<g  transform="translate(0, 0)">
<path fill="orange" d="M6,0H1C0.4,0,0,0.4,0,1v5c0,0.6,0.4,1,1,1h5c0.6,0,1-0.4,1-1V1C7,0.4,6.6,0,6,0z M5,5H2V2h3V5z"/>
<path fill="orange" d="M15,0h-5C9.4,0,9,0.4,9,1v5c0,0.6,0.4,1,1,1h5c0.6,0,1-0.4,1-1V1C16,0.4,15.6,0,15,0z M14,5h-3V2h3V5z"/>
<path fill="orange" d="M6,9H1c-0.6,0-1,0.4-1,1v5c0,0.6,0.4,1,1,1h5c0.6,0,1-0.4,1-1v-5C7,9.4,6.6,9,6,9z M5,14H2v-3h3V14z"/>
<path fill="orange" d="M15,9h-5c-0.6,0-1,0.4-1,1v5c0,0.6,0.4,1,1,1h5c0.6,0,1-0.4,1-1v-5C16,9.4,15.6,9,15,9z M14,14h-3v-3h3V14z"/>
</g>




</svg>