<?xml version="1.0" encoding="utf-8"?>
<!-- Generator: Adobe Illustrator 19.1.0, SVG Export Plug-In . SVG Version: 6.00 Build 0)  -->
<!DOCTYPE svg PUBLIC "-//W3C//DTD SVG 1.1//EN" "http://www.w3.org/Graphics/SVG/1.1/DTD/svg11.dtd">
<svg version="1.1" id="Layer_1" xmlns="http://www.w3.org/2000/svg" xmlns:xlink="http://www.w3.org/1999/xlink" x="0px" y="0px"
	 width="96px" height="16px" viewBox="0 0 96 16" enable-background="new 0 0 96 16" >
<path fill="green" d="M19,14v-2h10v2H19z M20,7h3V2h2v5h3l-4,4L20,7z"/>
<path fill="orange" d="M40,6c-3.2,0-6,2.5-6,7c1.1-1.7,2.4-3,6-3v3l6-5l-6-5V6z"/>
<path fill="yellow" d="M74,2h-4v2h-4v2h2v7c0,0.5525,0.44749,1,1,1h6c0.55251,0,1-0.4475,1-1V6h2V4h-4V2z M74,6v6h-4V6H74z"/>
<path fill="blue" d="M58.7,2.508c-1.125,0-2.1,0.575-2.7,1.438c-0.6-0.863-1.575-1.438-2.7-1.438c-1.8,0-3.3,1.438-3.3,3.164
	c0,3.164,6,7.8385,6,7.8385s6-4.6745,6-7.8385C62,3.946,60.5,2.508,58.7,2.508z"/>
<!-- <path fill="violet" d="M74,2h-4v2h-4v2h2v7c0,0.5525,0.44749,1,1,1h6c0.55251,0,1-0.4475,1-1V6h2V4h-4V2z M74,6v6h-4V6H74z"/> -->
<!-- <path fill="violet" d="M19,14v-2h10v2H19z M20,7h3V2h2v5h3l-4,4L20,7z"/> -->
<path fill="violet" d="M3,16h10c0.6,0,1-0.4,1-1V7.5l0.3,0.3C14.5,7.9,14.8,8,15,8c0.3,0,0.6-0.1,0.8-0.3c0.4-0.4,0.3-1-0.1-1.4
	l-7-6c-0.4-0.3-0.9-0.3-1.3,0L4,3.1V2c0-0.6-0.4-1-1-1S2,1.4,2,2v2.8L0.3,6.2c-0.4,0.4-0.5,1-0.1,1.4c0.4,0.4,1,0.5,1.4,0.1L2,7.5
	V15C2,15.6,2.4,16,3,16z M4,5.7l4-3.4l4,3.5c0,0.1,0,0.1,0,0.2v8h-2v-3c0-0.6-0.4-1-1-1H7c-0.6,0-1,0.4-1,1v3H4V5.7z"/>
<path fill="white" d="M15.94,10.179l-2.437-0.325l1.62-7.379c0.047-0.235-0.132-0.458-0.372-0.458H5.25c-0.241,0-0.42,0.223-0.373,0.458l1.634,7.376L4.06,10.179c-0.312,0.041-0.446,0.425-0.214,0.649l2.864,2.759l-0.724,3.947c-0.058,0.315,0.277,0.554,0.559,0.401l3.457-1.916l3.456,1.916c-0.419-0.238,0.56,0.439,0.56-0.401l-0.725-3.947l2.863-2.759C16.388,10.604,16.254,10.22,15.94,10.179M10.381,2.778h3.902l-1.536,6.977L12.036,9.66l-1.655-3.546V2.778z M5.717,2.778h3.903v3.335L7.965,9.66L7.268,9.753L5.717,2.778zM12.618,13.182c-0.092,0.088-0.134,0.217-0.11,0.343l0.615,3.356l-2.938-1.629c-0.057-0.03-0.122-0.048-0.184-0.048c-0.063,0-0.128,0.018-0.185,0.048l-2.938,1.629l0.616-3.356c0.022-0.126-0.019-0.255-0.11-0.343l-2.441-2.354l3.329-0.441c0.128-0.017,0.24-0.099,0.295-0.215l1.435-3.073l1.435,3.073c0.055,0.116,0.167,0.198,0.294,0.215l3.329,0.441L12.618,13.182z"/>
</svg>
